<?xml version="1.0" encoding="utf-8"?>
<!-- Generator: Adobe Illustrator 22.0.1, SVG Export Plug-In . SVG Version: 6.00 Build 0)  -->
<svg version="1.2" baseProfile="tiny" id="Layer_1" xmlns="http://www.w3.org/2000/svg" xmlns:xlink="http://www.w3.org/1999/xlink"
	 x="0px" y="0px" viewBox="0 0 92 92" xml:space="preserve">
<g>
	<g>
		<path fill="#FFFFFF" d="M39.9,14.6c0,2.5-0.6,4.7-1.9,6.5c-1.3,1.8-3.1,3.5-5.6,5.2L27,29.8c-2.8,1.9-5,3.7-6.4,5.4
			c-1.4,1.7-2.1,3.9-2.1,6.3v0.2h19.7c0.3,0,0.6,0.1,0.8,0.3c0.2,0.2,0.4,0.5,0.4,0.8v4.6c0,0.3-0.1,0.6-0.4,0.8
			c-0.2,0.2-0.5,0.4-0.8,0.4H12.8c-0.3,0-0.6-0.1-0.8-0.4c-0.2-0.2-0.4-0.5-0.4-0.8v-5.9c0-1.6,0.2-3.2,0.7-4.8c0.5-1.5,1.1-3,2-4.3
			c0.8-1.3,1.8-2.6,2.9-3.7c1.1-1.1,2.3-2.1,3.5-2.9l5.9-4c1.2-0.8,2.1-1.4,2.8-2c0.7-0.6,1.3-1.1,1.7-1.6c0.4-0.5,0.7-1,0.8-1.6
			c0.1-0.6,0.2-1.3,0.2-2.1c0-1.6-0.5-2.8-1.6-3.4c-1.1-0.7-2.9-1-5.4-1c-0.9,0-1.8,0-2.9,0.1s-2.1,0.1-3.1,0.2
			c-1.1,0.1-2.1,0.2-3.2,0.3c-1,0.1-2,0.2-2.9,0.3H13c-0.3,0-0.6-0.1-0.8-0.4c-0.2-0.2-0.3-0.5-0.3-0.8V6.2c0-0.3,0.1-0.6,0.3-0.8
			c0.2-0.2,0.5-0.3,0.8-0.4c0.8-0.2,1.6-0.4,2.6-0.6c1-0.2,2-0.3,3.1-0.5c1.1-0.1,2.1-0.2,3.2-0.3c1.1-0.1,2.1-0.1,3.1-0.1
			c5.2,0,9,0.9,11.3,2.7C38.8,8.1,39.9,10.8,39.9,14.6z"/>
		<path fill="#FFFFFF" d="M62.8,28.4c-0.1,0.2-0.3,0.2-0.5,0.2h-3.2c-0.2,0-0.3-0.1-0.5-0.2c-0.1-0.2-0.2-0.3-0.2-0.5V16.5
			c0-0.8,0-1.4-0.1-1.9s-0.2-0.9-0.4-1.2c-0.2-0.3-0.5-0.5-0.9-0.6c-0.4-0.1-0.9-0.2-1.6-0.2c-0.6,0-1.2,0.1-1.9,0.3
			c-0.6,0.2-1.3,0.5-2.1,0.9v14.1c0,0.2-0.1,0.4-0.2,0.5c-0.1,0.2-0.3,0.2-0.5,0.2h-3.2c-0.2,0-0.3-0.1-0.5-0.2
			c-0.1-0.2-0.2-0.3-0.2-0.5V9.6c0-0.2,0.1-0.3,0.2-0.5c0.1-0.1,0.3-0.2,0.5-0.2h3c0.2,0,0.3,0.1,0.5,0.2c0.1,0.1,0.2,0.3,0.2,0.5
			v0.7c0.5-0.3,1-0.6,1.4-0.8c0.4-0.2,0.9-0.4,1.3-0.5c0.4-0.1,0.9-0.2,1.4-0.3c0.5-0.1,1-0.1,1.6-0.1c1.3,0,2.3,0.2,3.1,0.6
			c0.8,0.4,1.4,0.9,1.8,1.6c0.4,0.7,0.7,1.5,0.9,2.5c0.2,1,0.2,2,0.2,3.1v11.4C63,28.1,62.9,28.3,62.8,28.4z"/>
		<path fill="#FFFFFF" d="M83.2,27.1c0,0.3-0.1,0.4-0.2,0.6c-0.1,0.1-0.4,0.3-0.8,0.4c-1.1,0.3-2.3,0.5-3.5,0.7
			c-1.2,0.2-2.4,0.2-3.5,0.2c-2.8,0-4.9-0.8-6.3-2.3c-1.4-1.6-2.1-3.7-2.1-6.5v-2.7c0-2.8,0.7-4.9,2.1-6.5c1.4-1.6,3.5-2.3,6.3-2.3
			c0.4,0,0.9,0,1.5,0.1c0.6,0,1.2,0.1,1.9,0.2V2.7c0-0.2,0.1-0.3,0.2-0.5C78.9,2.1,79,2,79.2,2h3.2c0.2,0,0.4,0.1,0.5,0.2
			c0.1,0.1,0.2,0.3,0.2,0.5V27.1z M78.5,12.7c-0.5-0.1-1.1-0.1-1.7-0.2s-1.2-0.1-1.6-0.1c-0.7,0-1.4,0.1-1.9,0.4
			c-0.5,0.3-0.9,0.6-1.2,1c-0.3,0.4-0.5,1-0.6,1.6c-0.1,0.6-0.2,1.3-0.2,2v2.7c0,0.7,0.1,1.4,0.2,2c0.1,0.6,0.3,1.1,0.6,1.6
			c0.3,0.4,0.7,0.8,1.2,1c0.5,0.3,1.1,0.4,1.9,0.4c0.6,0,1.3,0,1.9-0.1c0.6,0,1.1-0.1,1.5-0.2V12.7z"/>
	</g>
	<rect x="10.3" y="51.3" fill="#FFFFFF" width="71.6" height="4.4"/>
</g>
<g>
	<path fill="#FFFFFF" d="M22.9,83.4h-7.7c-1.3,0-2.3-0.3-3-0.8c-0.7-0.5-1.1-1.5-1.1-2.9V59.1c0-0.2,0.1-0.3,0.2-0.5
		c0.1-0.1,0.2-0.2,0.4-0.2h0.3c0.2,0,0.3,0.1,0.4,0.2c0.1,0.1,0.2,0.3,0.2,0.5v20.6c0,0.5,0.1,0.9,0.2,1.2c0.1,0.3,0.3,0.6,0.5,0.7
		c0.2,0.2,0.5,0.3,0.8,0.3c0.3,0.1,0.7,0.1,1.1,0.1h7.7c0.4,0,0.6,0.2,0.6,0.5v0.3C23.5,83.2,23.3,83.4,22.9,83.4z"/>
	<path fill="#FFFFFF" d="M38.7,82.7c0,0.2-0.1,0.3-0.2,0.5s-0.3,0.2-0.5,0.2h-0.2c-0.2,0-0.3-0.1-0.5-0.2s-0.2-0.3-0.2-0.5v-0.8
		c-0.8,0.4-1.7,0.8-2.7,1.2s-2,0.5-3,0.5c-0.6,0-1.2-0.1-1.9-0.3c-0.6-0.2-1.2-0.5-1.6-0.9c-0.5-0.4-0.9-1-1.2-1.7
		c-0.3-0.7-0.5-1.6-0.5-2.6v-0.4c0-0.9,0.1-1.6,0.4-2.3s0.8-1.2,1.4-1.6s1.5-0.8,2.6-1c1.1-0.2,2.4-0.3,3.9-0.3h2.6v-1.2
		c0-0.9-0.1-1.6-0.2-2.2c-0.1-0.6-0.4-1.1-0.7-1.5c-0.3-0.4-0.8-0.7-1.3-0.9c-0.5-0.2-1.2-0.3-2-0.3c-0.6,0-1,0-1.5,0
		c-0.4,0-0.8,0-1.2,0.1c-0.4,0-0.7,0.1-1,0.1c-0.3,0-0.7,0.1-1.1,0.1c-0.2,0-0.4,0-0.5-0.1c-0.2-0.1-0.3-0.2-0.3-0.5v-0.2
		c0-0.2,0.1-0.4,0.2-0.4s0.3-0.1,0.6-0.2c0.4,0,0.7-0.1,1-0.1c0.3,0,0.7-0.1,1-0.1c0.4,0,0.8-0.1,1.2-0.1c0.4,0,0.9,0,1.5,0
		c1.1,0,2.1,0.2,2.8,0.5c0.7,0.3,1.3,0.7,1.7,1.3c0.4,0.5,0.7,1.2,0.9,2c0.2,0.8,0.2,1.6,0.2,2.5V82.7z M37.3,73.9h-2.6
		c-1.3,0-2.3,0.1-3.2,0.2c-0.9,0.1-1.6,0.4-2.1,0.7c-0.5,0.3-0.9,0.7-1.2,1.2c-0.2,0.5-0.4,1.1-0.4,1.8v0.4c0,0.8,0.1,1.4,0.3,2
		s0.5,0.9,0.8,1.3c0.3,0.3,0.7,0.5,1.2,0.7c0.4,0.1,0.9,0.2,1.4,0.2c0.9,0,1.9-0.1,2.7-0.4c0.9-0.3,1.9-0.7,3-1.3V73.9z"/>
	<path fill="#FFFFFF" d="M49.9,85.3c-0.3,0.9-0.6,1.6-0.9,2.3c-0.3,0.6-0.7,1.1-1.1,1.4c-0.4,0.4-0.9,0.6-1.5,0.8
		c-0.6,0.1-1.2,0.2-2,0.2c-0.4,0-0.7,0-1.1-0.1c-0.3,0-0.7-0.1-1-0.1c-0.2,0-0.4-0.1-0.5-0.1c-0.1,0-0.2-0.2-0.2-0.3v-0.4
		c0-0.2,0.1-0.3,0.2-0.4c0.1-0.1,0.3-0.1,0.6-0.1c0.2,0,0.6,0.1,1.1,0.1c0.5,0,0.8,0.1,1.1,0.1c0.6,0,1.1-0.1,1.5-0.2
		c0.4-0.1,0.8-0.3,1.1-0.6c0.3-0.3,0.6-0.6,0.8-1.1c0.2-0.5,0.4-1.1,0.6-1.8l0.4-1.6h-0.5c-0.5,0-0.9-0.1-1.2-0.3
		c-0.3-0.2-0.6-0.7-0.8-1.5L42,66.2c-0.1-0.2-0.1-0.4,0-0.6c0.1-0.2,0.3-0.2,0.5-0.2h0.3c0.2,0,0.3,0.1,0.4,0.2
		c0.1,0.1,0.1,0.2,0.2,0.3l4.5,15.5c0.1,0.4,0.2,0.6,0.4,0.6c0.1,0.1,0.3,0.1,0.4,0.1h0.8l4.6-16.2c0-0.1,0.1-0.2,0.2-0.3
		c0.1-0.1,0.2-0.1,0.4-0.1H55c0.3,0,0.4,0.1,0.5,0.3c0.1,0.2,0.1,0.4,0,0.6L49.9,85.3z"/>
	<path fill="#FFFFFF" d="M71.4,74.1c0,0.2-0.1,0.3-0.2,0.5c-0.1,0.1-0.3,0.2-0.5,0.2H59.4v0.7c0,1.4,0.2,2.6,0.5,3.5
		c0.3,0.9,0.8,1.6,1.3,2.1c0.6,0.5,1.2,0.8,1.9,1c0.7,0.2,1.5,0.3,2.4,0.3c0.7,0,1.5-0.1,2.4-0.2c0.9-0.1,1.7-0.2,2.6-0.4
		c0.2,0,0.3,0,0.5,0c0.1,0.1,0.2,0.2,0.2,0.4v0.2c0,0.2,0,0.3-0.1,0.4C71,82.9,70.8,83,70.6,83c-0.8,0.2-1.7,0.3-2.6,0.4
		c-0.9,0.1-1.7,0.2-2.5,0.2c-1.1,0-2-0.1-2.9-0.4c-0.9-0.3-1.7-0.7-2.4-1.3c-0.7-0.6-1.2-1.5-1.6-2.5S58,77,58,75.4v-2.2
		c0-1.2,0.1-2.2,0.4-3.2c0.3-1,0.7-1.8,1.3-2.5c0.6-0.7,1.3-1.3,2.1-1.7s1.8-0.6,2.9-0.6c1.2,0,2.2,0.2,3,0.6s1.5,0.9,2.1,1.6
		c0.5,0.7,1,1.6,1.2,2.5c0.3,1,0.4,2.1,0.4,3.3V74.1z M70,73.2c0-2.1-0.4-3.8-1.2-4.9c-0.8-1.2-2.1-1.7-4-1.7
		c-0.9,0-1.7,0.2-2.4,0.5c-0.7,0.3-1.2,0.8-1.6,1.4s-0.8,1.3-1,2.1s-0.3,1.7-0.3,2.7v0.2H70V73.2z"/>
	<path fill="#FFFFFF" d="M82.4,66.4c-0.2,0.1-0.4,0.1-0.7,0.1c-0.7,0-1.3,0.1-2.1,0.3C79,67,78.1,67.4,77.1,68v14.7
		c0,0.2-0.1,0.3-0.2,0.5c-0.1,0.1-0.3,0.2-0.5,0.2h-0.2c-0.2,0-0.3-0.1-0.5-0.2c-0.1-0.1-0.2-0.3-0.2-0.5V66c0-0.2,0.1-0.3,0.2-0.5
		c0.1-0.1,0.3-0.2,0.4-0.2h0.3c0.2,0,0.3,0.1,0.4,0.2c0.1,0.1,0.2,0.3,0.2,0.5v0.7c0.9-0.6,1.6-1,2.4-1.2c0.7-0.2,1.5-0.4,2.3-0.4
		c0.3,0,0.5,0,0.7,0.1s0.3,0.2,0.3,0.4V66C82.7,66.2,82.6,66.3,82.4,66.4z"/>
</g>
</svg>
